<svg width="19" height="21" viewBox="0 0 19 21" fill="none" xmlns="http://www.w3.org/2000/svg">
<path d="M17.1333 7.00001L11.1173 1.74001C10.5658 1.24805 9.85188 0.976074 9.11198 0.976074C8.37208 0.976074 7.65814 1.24805 7.10665 1.74001L1.09065 7.00001C0.772174 7.28408 0.518029 7.63256 0.345141 8.02225C0.172254 8.41194 0.0845893 8.83389 0.0879857 9.26001V18C0.0879857 18.7957 0.404899 19.5587 0.969009 20.1213C1.53312 20.6839 2.29821 21 3.09599 21H15.128C15.9258 21 16.6909 20.6839 17.255 20.1213C17.8191 19.5587 18.136 18.7957 18.136 18V9.25001C18.138 8.82557 18.0496 8.40555 17.8768 8.01769C17.7039 7.62983 17.4505 7.28296 17.1333 7.00001ZM11.1173 19H7.10665V14C7.10665 13.7348 7.21229 13.4804 7.40033 13.2929C7.58836 13.1054 7.84339 13 8.10932 13H10.1147C10.3806 13 10.6356 13.1054 10.8236 13.2929C11.0117 13.4804 11.1173 13.7348 11.1173 14V19ZM16.1307 18C16.1307 18.2652 16.025 18.5196 15.837 18.7071C15.6489 18.8946 15.3939 19 15.128 19H13.1227V14C13.1227 13.2044 12.8057 12.4413 12.2416 11.8787C11.6775 11.3161 10.9124 11 10.1147 11H8.10932C7.31155 11 6.54645 11.3161 5.98234 11.8787C5.41823 12.4413 5.10132 13.2044 5.10132 14V19H3.09599C2.83006 19 2.57503 18.8946 2.38699 18.7071C2.19896 18.5196 2.09332 18.2652 2.09332 18V9.25001C2.0935 9.10802 2.12399 8.9677 2.18277 8.83839C2.24155 8.70907 2.32727 8.59372 2.43423 8.50001L8.45022 3.25001C8.6332 3.08969 8.86843 3.00127 9.11198 3.00127C9.35554 3.00127 9.59077 3.08969 9.77374 3.25001L15.7897 8.50001C15.8967 8.59372 15.9824 8.70907 16.0412 8.83839C16.1 8.9677 16.1305 9.10802 16.1307 9.25001V18Z" fill="#6d5ff8"/>
</svg>
