<svg width="26" height="26" viewBox="0 0 26 26" fill="none" xmlns="http://www.w3.org/2000/svg">
<path fill-rule="evenodd" clip-rule="evenodd" d="M14.0836 3.25033C14.0836 2.65202 13.5986 2.16699 13.0003 2.16699C12.402 2.16699 11.9169 2.65202 11.9169 3.25033V4.06283H11.3131C8.90258 4.06283 6.90752 5.93701 6.75705 8.3428L6.51763 12.1707C6.42635 13.6302 5.93637 15.0366 5.10105 16.2369C4.34631 17.3213 5.01822 18.8191 6.33006 18.9766L10.0211 19.4195V20.5837C10.0211 22.229 11.3549 23.5628 13.0003 23.5628C14.6456 23.5628 15.9794 22.229 15.9794 20.5837V19.4195L19.6705 18.9766C20.9823 18.8191 21.6542 17.3213 20.8995 16.2369C20.0642 15.0366 19.5742 13.6302 19.4829 12.1707L19.2435 8.3428C19.093 5.93701 17.098 4.06283 14.6875 4.06283H14.0836V3.25033ZM11.3131 5.68783C9.76066 5.68783 8.47579 6.89485 8.37888 8.44424L8.13946 12.2721C8.02961 14.0284 7.44 15.7208 6.43484 17.1651C6.38029 17.2435 6.42885 17.3518 6.52367 17.3631L10.5728 17.849C12.1853 18.0425 13.8152 18.0425 15.4278 17.849L19.4769 17.3631C19.5717 17.3518 19.6203 17.2435 19.5657 17.1651C18.5605 15.7208 17.9709 14.0284 17.8611 12.2721L17.6217 8.44424C17.5248 6.89485 16.2399 5.68783 14.6875 5.68783L11.3131 5.68783ZM13.0003 21.9378C12.2524 21.9378 11.6461 21.3315 11.6461 20.5837V19.7712H14.3544V20.5837C14.3544 21.3315 13.7482 21.9378 13.0003 21.9378Z" fill="white"/>
</svg>
