<svg width="21" height="20" viewBox="0 0 21 20" fill="none" xmlns="http://www.w3.org/2000/svg">
<path d="M6.71516 9C6.51685 9 6.323 9.05865 6.15811 9.16853C5.99322 9.27841 5.86471 9.43459 5.78882 9.61732C5.71293 9.80004 5.69307 10.0011 5.73176 10.1951C5.77045 10.3891 5.86594 10.5673 6.00617 10.7071C6.14639 10.847 6.32505 10.9422 6.51955 10.9808C6.71405 11.0194 6.91565 10.9996 7.09886 10.9239C7.28208 10.8482 7.43867 10.72 7.54885 10.5556C7.65902 10.3911 7.71783 10.1978 7.71783 10C7.71783 9.73478 7.61219 9.48043 7.42415 9.29289C7.23611 9.10536 6.98108 9 6.71516 9ZM10.7258 9C10.5275 9 10.3337 9.05865 10.1688 9.16853C10.0039 9.27841 9.87537 9.43459 9.79948 9.61732C9.72359 9.80004 9.70374 10.0011 9.74243 10.1951C9.78111 10.3891 9.87661 10.5673 10.0168 10.7071C10.1571 10.847 10.3357 10.9422 10.5302 10.9808C10.7247 11.0194 10.9263 10.9996 11.1095 10.9239C11.2927 10.8482 11.4493 10.72 11.5595 10.5556C11.6697 10.3911 11.7285 10.1978 11.7285 10C11.7285 9.73478 11.6229 9.48043 11.4348 9.29289C11.2468 9.10536 10.9917 9 10.7258 9ZM14.7365 9C14.5382 9 14.3443 9.05865 14.1794 9.16853C14.0146 9.27841 13.886 9.43459 13.8101 9.61732C13.7343 9.80004 13.7144 10.0011 13.7531 10.1951C13.7918 10.3891 13.8873 10.5673 14.0275 10.7071C14.1677 10.847 14.3464 10.9422 14.5409 10.9808C14.7354 11.0194 14.937 10.9996 15.1202 10.9239C15.3034 10.8482 15.46 10.72 15.5702 10.5556C15.6804 10.3911 15.7392 10.1978 15.7392 10C15.7392 9.73478 15.6335 9.48043 15.4455 9.29289C15.2574 9.10536 15.0024 9 14.7365 9ZM10.7258 0C9.40911 0 8.10528 0.258658 6.88879 0.761205C5.6723 1.26375 4.56696 2.00035 3.6359 2.92893C1.75554 4.8043 0.69916 7.34783 0.69916 10C0.690394 12.3091 1.49206 14.5485 2.96519 16.33L0.959853 18.33C0.820726 18.4706 0.726479 18.6492 0.689005 18.8432C0.651531 19.0372 0.67251 19.2379 0.749293 19.42C0.832573 19.5999 0.967578 19.7511 1.13717 19.8544C1.30677 19.9577 1.5033 20.0083 1.70183 20H10.7258C13.3851 20 15.9354 18.9464 17.8158 17.0711C19.6961 15.1957 20.7525 12.6522 20.7525 10C20.7525 7.34783 19.6961 4.8043 17.8158 2.92893C15.9354 1.05357 13.3851 0 10.7258 0ZM10.7258 18H4.11825L5.05073 17.07C5.23748 16.8826 5.3423 16.6292 5.3423 16.365C5.3423 16.1008 5.23748 15.8474 5.05073 15.66C3.73783 14.352 2.92024 12.6305 2.73727 10.7888C2.5543 8.94705 3.01727 7.09901 4.04729 5.55952C5.07732 4.02004 6.61067 2.88436 8.38612 2.34597C10.1616 1.80759 12.0693 1.8998 13.7842 2.60691C15.4991 3.31402 16.9151 4.59227 17.7911 6.22389C18.667 7.85551 18.9486 9.73954 18.5879 11.555C18.2272 13.3705 17.2465 15.005 15.8129 16.1802C14.3793 17.3554 12.5815 17.9985 10.7258 18Z" fill="white"/>
</svg>
