<svg width="21" height="20" viewBox="0 0 21 20" fill="none" xmlns="http://www.w3.org/2000/svg">
<path d="M13.0912 10.28C13.7259 9.60024 14.0834 8.70877 14.0939 7.78C14.0939 6.77748 13.6946 5.81602 12.9838 5.10714C12.273 4.39825 11.309 4 10.3038 4C9.29862 4 8.3346 4.39825 7.62383 5.10714C6.91305 5.81602 6.51374 6.77748 6.51374 7.78C6.5242 8.70877 6.88174 9.60024 7.5164 10.28C6.63271 10.7189 5.87225 11.3699 5.30343 12.1746C4.73462 12.9793 4.37528 13.9124 4.25774 14.89C4.22849 15.1552 4.30607 15.4212 4.47342 15.6293C4.64077 15.8375 4.88419 15.9708 5.15011 16C5.41603 16.0292 5.68269 15.9518 5.89141 15.7849C6.10013 15.618 6.23382 15.3752 6.26307 15.11C6.38272 14.1411 6.85349 13.2494 7.58668 12.6027C8.31987 11.956 9.26487 11.599 10.2437 11.599C11.2224 11.599 12.1674 11.956 12.9006 12.6027C13.6338 13.2494 14.1046 14.1411 14.2242 15.11C14.2521 15.3664 14.3783 15.6022 14.5763 15.768C14.7744 15.9339 15.029 16.017 15.2871 16H15.3974C15.6602 15.9698 15.9004 15.8373 16.0657 15.6313C16.231 15.4252 16.3079 15.1624 16.2797 14.9C16.1709 13.9276 15.8229 12.997 15.2666 12.191C14.7104 11.3851 13.9631 10.7286 13.0912 10.28ZM10.2737 9.56C9.92075 9.56 9.57568 9.4556 9.28218 9.26002C8.98868 9.06443 8.75993 8.78643 8.62485 8.46118C8.48976 8.13592 8.45442 7.77803 8.52328 7.43274C8.59215 7.08745 8.76213 6.77029 9.01173 6.52135C9.26133 6.27241 9.57934 6.10288 9.92555 6.0342C10.2718 5.96552 10.6306 6.00077 10.9567 6.13549C11.2829 6.27022 11.5616 6.49837 11.7577 6.79109C11.9538 7.0838 12.0585 7.42795 12.0585 7.78C12.0585 8.25208 11.8704 8.70484 11.5357 9.03865C11.201 9.37247 10.7471 9.56 10.2737 9.56ZM17.2924 0H3.25507C2.4573 0 1.6922 0.316071 1.12809 0.87868C0.563984 1.44129 0.24707 2.20435 0.24707 3V17C0.24707 17.7956 0.563984 18.5587 1.12809 19.1213C1.6922 19.6839 2.4573 20 3.25507 20H17.2924C18.0902 20 18.8553 19.6839 19.4194 19.1213C19.9835 18.5587 20.3004 17.7956 20.3004 17V3C20.3004 2.20435 19.9835 1.44129 19.4194 0.87868C18.8553 0.316071 18.0902 0 17.2924 0ZM18.2951 17C18.2951 17.2652 18.1894 17.5196 18.0014 17.7071C17.8134 17.8946 17.5583 18 17.2924 18H3.25507C2.98915 18 2.73411 17.8946 2.54608 17.7071C2.35804 17.5196 2.2524 17.2652 2.2524 17V3C2.2524 2.73478 2.35804 2.48043 2.54608 2.29289C2.73411 2.10536 2.98915 2 3.25507 2H17.2924C17.5583 2 17.8134 2.10536 18.0014 2.29289C18.1894 2.48043 18.2951 2.73478 18.2951 3V17Z" fill="white"/>
</svg>
